<svg width="20" height="20" viewBox="0 0 20 20" fill="none" xmlns="http://www.w3.org/2000/svg">
<path d="M11.0254 1.86112C10.2787 1.88564 9.58333 2.49307 9.58333 3.3105V6.12788C9.58333 6.31581 9.66064 6.48353 9.68425 6.66662H8.95833C6.63895 6.66662 4.58032 7.83664 3.33333 9.61177V8.12495C3.33333 6.8818 3.75077 5.65578 4.45394 4.76965C5.15711 3.88351 6.11139 3.33329 7.29167 3.33329C7.37449 3.33446 7.45671 3.31916 7.53357 3.28827C7.61042 3.25739 7.68038 3.21154 7.73936 3.15339C7.79834 3.09523 7.84517 3.02594 7.87714 2.94953C7.90911 2.87312 7.92557 2.79112 7.92557 2.70829C7.92557 2.62546 7.90911 2.54346 7.87714 2.46705C7.84517 2.39063 7.79834 2.32134 7.73936 2.26319C7.68038 2.20503 7.61042 2.15918 7.53357 2.1283C7.45671 2.09742 7.37449 2.08212 7.29167 2.08329C5.71069 2.08329 4.37312 2.86058 3.47494 3.99247C2.57675 5.12435 2.08333 6.60685 2.08333 8.12495V13.5416C2.08308 13.5653 2.08417 13.5889 2.08659 13.6124C2.12166 15.9892 3.90127 17.9515 6.19792 18.2796C6.27987 18.316 6.36868 18.3343 6.45833 18.3333H16.4583C17.2562 18.3333 17.9167 17.6729 17.9167 16.875C17.9167 15.9823 17.4015 15.201 16.6488 14.825L16.648 14.8242C16.3822 14.691 14.2515 13.7041 14.174 10.389C16.2664 10.1733 17.9167 8.3992 17.9167 6.24914V3.3105C17.9167 2.22047 16.681 1.50418 15.7349 2.04504C15.6785 2.07709 15.6274 2.11772 15.5835 2.16548L14.5158 3.33329H12.9834L11.9165 2.16548C11.8726 2.11772 11.8215 2.07709 11.7651 2.04504C11.5285 1.90979 11.2743 1.85294 11.0254 1.86112ZM16.4925 3.10135C16.5224 3.09772 16.5502 3.1003 16.5731 3.11356C16.6304 3.14677 16.6667 3.21552 16.6667 3.3105V6.24914C16.6667 7.9321 15.2674 9.27115 13.5547 9.16011C12.0142 9.0602 10.8333 7.69972 10.8333 6.12788V3.3105C10.8333 3.14039 10.9576 3.07401 11.1011 3.12658L12.2469 4.37984C12.3055 4.44394 12.3767 4.49513 12.4562 4.53016C12.5356 4.56519 12.6215 4.58328 12.7083 4.58329H14.7917C14.8785 4.58328 14.9644 4.56519 15.0438 4.53016C15.1233 4.49513 15.1945 4.44394 15.2531 4.37984L16.3989 3.12658C16.4308 3.11484 16.4627 3.10499 16.4925 3.10135ZM12.2917 5.41662C12.1259 5.41662 11.9669 5.48247 11.8497 5.59968C11.7325 5.71689 11.6667 5.87586 11.6667 6.04162C11.6667 6.20738 11.7325 6.36635 11.8497 6.48356C11.9669 6.60077 12.1259 6.66662 12.2917 6.66662C12.4574 6.66662 12.6164 6.60077 12.7336 6.48356C12.8508 6.36635 12.9167 6.20738 12.9167 6.04162C12.9167 5.87586 12.8508 5.71689 12.7336 5.59968C12.6164 5.48247 12.4574 5.41662 12.2917 5.41662ZM15.2083 5.41662C15.0426 5.41662 14.8836 5.48247 14.7664 5.59968C14.6492 5.71689 14.5833 5.87586 14.5833 6.04162C14.5833 6.20738 14.6492 6.36635 14.7664 6.48356C14.8836 6.60077 15.0426 6.66662 15.2083 6.66662C15.3741 6.66662 15.5331 6.60077 15.6503 6.48356C15.7675 6.36635 15.8333 6.20738 15.8333 6.04162C15.8333 5.87586 15.7675 5.71689 15.6503 5.59968C15.5331 5.48247 15.3741 5.41662 15.2083 5.41662ZM9.99024 7.88651C10.5312 9.10231 11.5885 10.053 12.9224 10.332C12.9825 14.2706 15.8075 15.8012 16.0889 15.9423C16.0891 15.9423 16.0894 15.9423 16.0897 15.9423C16.4305 16.1124 16.6667 16.4613 16.6667 16.875C16.6667 16.9979 16.5813 17.0833 16.4583 17.0833H12.0614C12.0719 17.0131 12.0833 16.9429 12.0833 16.8701C12.0833 15.8141 11.3531 14.9193 10.3743 14.6606C10.1054 12.7397 8.45083 11.25 6.45833 11.25H6.04167C5.95885 11.2488 5.87662 11.2641 5.79977 11.295C5.72291 11.3259 5.65296 11.3717 5.59398 11.4299C5.535 11.488 5.48816 11.5573 5.45619 11.6337C5.42423 11.7101 5.40777 11.7921 5.40777 11.875C5.40777 11.9578 5.42423 12.0398 5.45619 12.1162C5.48816 12.1926 5.535 12.2619 5.59398 12.3201C5.65296 12.3782 5.72291 12.4241 5.79977 12.4549C5.87662 12.4858 5.95885 12.5011 6.04167 12.5H6.45833C7.94733 12.5 9.14204 13.6834 9.16423 15.1668C9.15789 15.2621 9.17348 15.3576 9.2098 15.4459C9.21086 15.4489 9.21195 15.4519 9.21305 15.4549C9.21593 15.4614 9.21891 15.4679 9.22201 15.4744C9.27583 15.5935 9.36562 15.6927 9.47875 15.7581C9.59188 15.8235 9.72266 15.8518 9.8527 15.839C10.4052 15.868 10.8333 16.3093 10.8333 16.8701C10.8333 16.9951 10.7448 17.0833 10.6201 17.0833H6.875C4.9115 17.0833 3.33333 15.5051 3.33333 13.5416C3.33333 10.445 5.86174 7.91662 8.95833 7.91662H9.79167C9.85905 7.91735 9.9261 7.90718 9.99024 7.88651Z" fill="black"/>
</svg>
