<svg width="29" height="29" viewBox="0 0 29 29" fill="none" xmlns="http://www.w3.org/2000/svg">
<path d="M26.5833 14.5001C26.5833 21.1459 21.1458 26.5834 14.5 26.5834C7.85416 26.5834 2.41666 21.1459 2.41666 14.5001C2.41666 7.85425 7.85416 2.41675 14.5 2.41675C21.1458 2.41675 26.5833 7.85425 26.5833 14.5001Z" fill="#F44336"/>
<path d="M17.5208 12.6874H16.3125V11.4791C16.3125 11.177 16.1917 9.66659 14.5 9.66659C12.8083 9.66659 12.6875 11.177 12.6875 11.4791V12.6874H11.4792V11.4791C11.4792 10.452 12.0833 8.45825 14.5 8.45825C16.9167 8.45825 17.5208 10.452 17.5208 11.4791V12.6874Z" fill="white"/>
<path d="M18.2458 19.3333H10.7542C10.15 19.3333 9.66666 18.8499 9.66666 18.2458V13.1708C9.66666 12.5666 10.15 12.0833 10.7542 12.0833H18.2458C18.85 12.0833 19.3333 12.5666 19.3333 13.1708V18.2458C19.3333 18.8499 18.85 19.3333 18.2458 19.3333Z" fill="#FFCDD2"/>
</svg>
