<svg width="20" height="20" viewBox="0 0 20 20" fill="none" xmlns="http://www.w3.org/2000/svg">
<g clip-path="url(#clip0_42_42)">
<path d="M11.45 0.800011C11.3141 0.801573 11.1766 0.807823 11.0375 0.825011C10.7609 0.860948 10.4578 0.954698 10.225 1.18751L1.13751 10.275C0.689069 10.7234 0.689069 11.4641 1.13751 11.9125L8.08751 18.8625C8.53594 19.3109 9.27657 19.3109 9.72501 18.8625L18.8125 9.77501C19.0438 9.54376 19.1391 9.23751 19.175 8.96251C19.2109 8.68751 19.2 8.41564 19.2 8.15001V2.20001C19.2 1.43126 18.5688 0.800011 17.8 0.800011H11.85C11.7203 0.800011 11.5859 0.798448 11.45 0.800011ZM11.4625 1.60001C11.5797 1.59689 11.7141 1.60001 11.85 1.60001H17.8C18.1359 1.60001 18.4 1.86407 18.4 2.20001V8.15001C18.4 8.42814 18.3984 8.6797 18.375 8.86251C18.3516 9.04532 18.3141 9.13595 18.25 9.20001L9.16251 18.3C9.02032 18.4422 8.79219 18.4422 8.65001 18.3L8.60001 18.2375L1.70001 11.35C1.55782 11.2078 1.55782 10.9797 1.70001 10.8375L10.8 1.75001C10.8625 1.68751 10.9656 1.64845 11.15 1.62501C11.2422 1.61251 11.3453 1.60314 11.4625 1.60001ZM15.6 2.80001C14.7203 2.80001 14 3.52032 14 4.40001C14 5.2797 14.7203 6.00001 15.6 6.00001C16.4797 6.00001 17.2 5.2797 17.2 4.40001C17.2 3.52032 16.4797 2.80001 15.6 2.80001ZM15.6 3.60001C16.0469 3.60001 16.4 3.95314 16.4 4.40001C16.4 4.84689 16.0469 5.20001 15.6 5.20001C15.1531 5.20001 14.8 4.84689 14.8 4.40001C14.8 3.95314 15.1531 3.60001 15.6 3.60001Z" fill="black"/>
</g>
<defs>
<clipPath id="clip0_42_42">
<rect width="20" height="20" fill="white"/>
</clipPath>
</defs>
</svg>
