<svg width="20" height="20" viewBox="0 0 20 20" fill="none" xmlns="http://www.w3.org/2000/svg">
<path d="M8.28125 1.875C8.15918 1.875 7.85889 2.14844 7.59766 2.53906C7.03125 2.65381 6.57227 3.02002 6.25 3.4375C5.85938 3.94043 5.625 4.54346 5.625 5.15625C5.625 5.68115 5.76904 6.23535 6.11328 6.69922C6.45752 7.16309 7.05078 7.5 7.75391 7.5C8.53027 7.5 9.16992 7.16064 9.53125 6.67969C9.89258 6.19873 10 5.64209 10 5.13672C10 4.64355 9.86572 4.06006 9.57031 3.53516C9.38232 3.20068 9.09424 2.87109 8.71094 2.67578C8.60352 2.23145 8.40332 1.875 8.28125 1.875ZM12.3438 2.5C12.2168 2.5 12.0215 2.87598 11.9141 3.33984C11.5796 3.53516 11.3257 3.83057 11.1328 4.14062C10.8179 4.64844 10.625 5.22461 10.625 5.78125C10.625 6.31348 10.7422 6.87012 11.1133 7.34375C11.4844 7.81738 12.1094 8.125 12.8711 8.125C13.5547 8.125 14.1577 7.82715 14.5117 7.38281C14.8657 6.93848 15 6.38428 15 5.85938C15 5.14404 14.7095 4.50195 14.2969 4.00391C13.9575 3.59375 13.5254 3.26904 13.0078 3.16406C12.749 2.77832 12.4658 2.5 12.3438 2.5ZM7.96875 3.75C8.17871 3.75 8.33008 3.86719 8.49609 4.16016C8.66211 4.45312 8.75 4.89258 8.75 5.13672C8.75 5.44189 8.67676 5.74951 8.53516 5.9375C8.39356 6.12549 8.21533 6.25 7.75391 6.25C7.41455 6.25 7.25342 6.13281 7.10938 5.9375C6.96533 5.74219 6.875 5.44678 6.875 5.15625C6.875 4.90478 7.01904 4.49219 7.24609 4.19922C7.47314 3.90625 7.73438 3.75 7.96875 3.75ZM12.6562 4.375C12.8076 4.375 13.1006 4.5166 13.3398 4.80469C13.5791 5.09277 13.75 5.48828 13.75 5.85938C13.75 6.1499 13.6694 6.43311 13.5352 6.60156C13.4009 6.77002 13.2275 6.875 12.8711 6.875C12.395 6.875 12.2217 6.75049 12.0898 6.58203C11.958 6.41357 11.875 6.13037 11.875 5.78125C11.875 5.57129 11.9922 5.11719 12.1875 4.80469C12.3828 4.49219 12.6123 4.375 12.6562 4.375ZM4.90234 6.25C4.79736 6.25 4.55078 6.45996 4.43359 7.03125C4.06982 7.20459 3.77197 7.5 3.57422 7.8125C3.25928 8.31055 3.125 8.87939 3.125 9.43359C3.125 9.93408 3.2666 10.4883 3.61328 10.9766C3.95996 11.4648 4.57275 11.875 5.33203 11.875C6.15967 11.875 6.79443 11.4307 7.10938 10.9375C7.42432 10.4443 7.5 9.94629 7.5 9.58984C7.5 8.98682 7.29492 8.37891 6.91406 7.85156C6.5918 7.40479 6.09619 7.02393 5.48828 6.91406C5.25391 6.56006 4.98291 6.25 4.90234 6.25ZM15.0977 7.5C15.0171 7.5 14.7461 7.81006 14.5117 8.16406C13.9038 8.27393 13.4082 8.65479 13.0859 9.10156C12.7051 9.62891 12.5 10.2368 12.5 10.8398C12.5 11.1963 12.5757 11.6943 12.8906 12.1875C13.2056 12.6807 13.8403 13.125 14.668 13.125C15.4272 13.125 16.04 12.7148 16.3867 12.2266C16.7334 11.7383 16.875 11.1841 16.875 10.6836C16.875 10.1294 16.7407 9.56055 16.4258 9.0625C16.2256 8.74512 15.9204 8.45215 15.5469 8.28125C15.4297 7.71484 15.2026 7.5 15.0977 7.5ZM5.15625 8.125C5.44678 8.125 5.68359 8.27637 5.89844 8.57422C6.11328 8.87207 6.25 9.29443 6.25 9.58984C6.25 9.70703 6.19385 10.0366 6.05469 10.2539C5.91553 10.4712 5.77148 10.625 5.33203 10.625C4.9707 10.625 4.79248 10.4834 4.62891 10.2539C4.46533 10.0244 4.375 9.67529 4.375 9.43359C4.375 9.10889 4.47021 8.72803 4.62891 8.47656C4.7876 8.2251 4.93408 8.125 5.15625 8.125ZM14.8438 9.375C15.0659 9.375 15.2124 9.4751 15.3711 9.72656C15.5298 9.97803 15.625 10.3589 15.625 10.6836C15.625 10.9253 15.5347 11.2744 15.3711 11.5039C15.2075 11.7334 15.0293 11.875 14.668 11.875C14.2285 11.875 14.0845 11.7407 13.9453 11.5234C13.8062 11.3062 13.75 10.957 13.75 10.8398C13.75 10.5444 13.8867 10.1221 14.1016 9.82422C14.3164 9.52637 14.5532 9.375 14.8438 9.375ZM9.6875 10C8.50098 10 7.52197 10.9668 7.5 12.1484C7.49268 12.1533 7.46582 12.1875 7.38281 12.2461C7.21436 12.3633 6.89941 12.522 6.5625 12.7148C6.22559 12.9077 5.85938 13.147 5.54688 13.5156C5.23438 13.8843 5 14.3994 5 15C5 16.3745 6.12549 17.5 7.5 17.5C8.19336 17.5 8.64746 17.3706 8.92578 17.2461C9.2041 17.1216 9.18213 17.0898 9.375 17.0898C9.56787 17.0898 9.5459 17.1216 9.82422 17.2461C10.1025 17.3706 10.5566 17.5 11.25 17.5C12.6245 17.5 13.75 16.3745 13.75 15C13.75 14.4312 13.5889 13.9453 13.3398 13.5938C13.0908 13.2422 12.7905 13.0371 12.5391 12.8711C12.2876 12.7051 12.085 12.5757 11.9922 12.4805C11.8994 12.3853 11.875 12.3608 11.875 12.1875C11.875 10.9863 10.8887 10 9.6875 10ZM9.6875 11.25C10.2124 11.25 10.625 11.6626 10.625 12.1875C10.625 12.6636 10.835 13.0957 11.0938 13.3594C11.3525 13.623 11.6187 13.7622 11.8359 13.9062C12.0532 14.0503 12.2217 14.1699 12.3242 14.3164C12.4268 14.4629 12.5 14.6436 12.5 15C12.5 15.6982 11.9482 16.25 11.25 16.25C10.6934 16.25 10.5371 16.1768 10.3516 16.0938C10.166 16.0107 9.83154 15.8398 9.375 15.8398C8.91846 15.8398 8.58398 16.0107 8.39844 16.0938C8.21289 16.1768 8.05664 16.25 7.5 16.25C6.80176 16.25 6.25 15.6982 6.25 15C6.25 14.6826 6.32812 14.502 6.48438 14.3164C6.64062 14.1309 6.89941 13.9526 7.1875 13.7891C7.47559 13.6255 7.78564 13.4912 8.08594 13.2812C8.38623 13.0713 8.75 12.7002 8.75 12.1875C8.75 11.6626 9.1626 11.25 9.6875 11.25Z" fill="black"/>
</svg>
