<svg xmlns="http://www.w3.org/2000/svg" width="29" height="29" fill="none" viewBox="0 0 29 29"><path fill="#FFC107" d="M24.1667 24.1666H4.83333C4.40014 24.1666 4.00139 23.9352 3.7857 23.5601C3.57062 23.1849 3.57183 22.7233 3.78993 22.3493L13.4566 5.43265C13.6729 5.06169 14.0704 4.83331 14.5 4.83331C14.9296 4.83331 15.3271 5.06169 15.544 5.43265L25.2107 22.3493C25.4288 22.7233 25.43 23.1849 25.2149 23.5601C24.9998 23.9352 24.5992 24.1666 24.1667 24.1666Z"/><path fill="#5D4037" d="M13.2917 20.6275C13.2917 20.4649 13.3201 20.3163 13.3781 20.1768C13.4348 20.039 13.5164 19.9194 13.6215 19.8191C13.7248 19.7176 13.8523 19.6384 13.9985 19.5816C14.1459 19.5261 14.3115 19.4965 14.4964 19.4965C14.6812 19.4965 14.848 19.5261 14.9966 19.5816C15.1477 19.6384 15.2751 19.7176 15.3784 19.8191C15.4842 19.9194 15.5657 20.039 15.6219 20.1768C15.6799 20.3163 15.7083 20.4649 15.7083 20.6275C15.7083 20.7906 15.6799 20.9392 15.6219 21.0745C15.5651 21.2105 15.4836 21.3277 15.3784 21.4298C15.2751 21.5301 15.1477 21.6086 14.9966 21.6666C14.848 21.7222 14.6812 21.75 14.4964 21.75C14.3109 21.75 14.1459 21.7222 13.9985 21.666C13.8523 21.608 13.7248 21.5295 13.6215 21.4292C13.5158 21.3271 13.4342 21.2099 13.3781 21.0739C13.3201 20.9386 13.2917 20.79 13.2917 20.6275ZM15.3942 18.125H13.598L13.3436 10.875H15.6479L15.3942 18.125Z"/></svg>